<svg width="322" height="457" viewBox="0 0 322 457" fill="none" xmlns="http://www.w3.org/2000/svg">
<path d="M89.5293 303.23L95.9072 304.506L106.112 317.262L120.143 327.466L132.899 332.569L145.655 335.12L162.238 333.844L176.269 328.742L189.025 321.088L199.229 310.884L204.332 303.23L213.261 304.506L231.119 313.435L245.151 324.915L252.804 333.844L261.733 347.875L268.111 364.458L270.662 377.214V456.3H228.568L227.292 383.592L224.741 381.041H218.363L217.088 456.3H83.1514L81.8758 384.867L79.3246 381.041H72.9467L71.6711 456.3H28.3013V386.143L30.8524 367.009L38.5059 346.6L48.7106 331.293L61.4664 318.537L75.4979 309.608L89.5293 303.23Z" fill="url(#paint0_linear_50_100)"/>
<path d="M121.421 142.507H131.626L146.933 146.333L163.515 156.538L178.822 162.916L191.578 165.467H206.885L218.366 164.192V210.113L214.539 224.144L204.334 240.727L192.854 253.482L180.098 261.136L164.791 266.238L158.413 267.514H141.831L125.248 263.687L108.665 254.758L98.4607 245.829L88.256 229.246L83.1537 217.766L80.6025 202.459V157.814L99.7363 147.609L112.492 143.782L121.421 142.507Z" fill="url(#paint1_linear_50_100)"/>
<path d="M260.084 247.104H317.951L320.809 248.533L321.524 249.962V290.684L319.38 293.542H259.369L257.226 292.113L256.512 272.109L252.939 267.823L242.938 259.964L242.223 257.821L254.368 257.106L256.512 254.963L257.226 249.248L260.084 247.104Z" fill="url(#paint2_linear_50_100)"/>
<path d="M143.105 86.3809H157.136L177.546 91.4832L192.853 100.412L205.609 114.444L214.538 129.751L218.364 145.058V152.711L210.711 155.262H187.75L171.168 150.16L146.932 136.129L138.003 133.577H113.767L93.3572 139.955L86.9793 143.782H81.877L85.7037 128.475L94.6328 114.444L102.286 104.239L115.042 95.3099L130.349 88.932L143.105 86.3809Z" fill="url(#paint3_linear_50_100)"/>
<path d="M126.524 275.167L152.035 277.718L173.72 275.167L174.996 295.576L178.823 298.128L192.854 299.403L191.578 305.781L178.823 317.261L168.618 322.364L158.413 324.915H141.831L125.248 319.813L115.043 312.159L106.114 303.23V299.403L121.421 298.128L125.248 294.301L126.524 275.167Z" fill="url(#paint4_linear_50_100)"/>
<path d="M36.7619 49.8274H38.6317L42.3715 56.0558L47.3578 62.2843L51.7208 66.6442L54.8372 69.7584L56.7071 71.0041L56.0838 73.4954L48.6043 79.7239L42.3715 87.8208L38.6317 94.6721H36.7619L33.0221 87.8208L26.166 79.101L18.6865 72.8726L19.3098 70.3812L24.9194 66.0213L31.1523 59.17L33.6454 54.8101L36.7619 49.8274Z" fill="url(#paint5_linear_50_100)"/>
<path d="M217.834 0L220.185 0.795855L225.67 9.55026L230.372 15.9171L234.29 20.6922L242.909 27.0591L242.125 30.2425L231.939 38.2011L225.67 46.9555L219.402 57.3016L217.051 56.5057L212.349 47.7513L206.081 39.7928L199.812 33.4259L194.327 29.4466L195.894 26.2632L203.73 19.1005L209.999 11.9378L217.834 0Z" fill="url(#paint6_linear_50_100)"/>
<path d="M275.894 151.974H277.245L280.396 157.372L283.547 161.42L287.598 165.919L290.299 167.718V169.067L286.248 172.216L282.196 176.714L278.145 183.012L277.245 184.362L275.444 183.912L272.293 178.514L266.891 172.216L263.74 169.517L262.84 169.067V167.718L266.891 164.569L270.042 160.97L274.094 155.572L275.894 151.974Z" fill="url(#paint7_linear_50_100)"/>
<path d="M23.5073 225.469L25.8581 226.254L31.3431 235.674L38.3953 244.308L41.5296 248.233L48.5818 253.728L44.6639 257.653L40.746 260.792L33.6938 269.427L26.6416 280.416L25.0745 282.771L22.7237 281.986L17.2387 272.567L8.61935 261.577L0 254.513L3.91789 250.588L10.1865 245.093L18.8059 233.319L23.5073 225.469Z" fill="url(#paint8_linear_50_100)"/>
<defs>
<linearGradient id="paint0_linear_50_100" x1="91.2207" y1="326.977" x2="200.772" y2="498.836" gradientUnits="userSpaceOnUse">
<stop stop-color="#00DC93"/>
<stop offset="0.822445" stop-color="#003221"/>
</linearGradient>
<linearGradient id="paint1_linear_50_100" x1="116.367" y1="161.9" x2="214.678" y2="269.245" gradientUnits="userSpaceOnUse">
<stop stop-color="#00DC93"/>
<stop offset="0.822445" stop-color="#003221"/>
</linearGradient>
<linearGradient id="paint2_linear_50_100" x1="262.81" y1="254.309" x2="294.927" y2="308.649" gradientUnits="userSpaceOnUse">
<stop stop-color="#00DC93"/>
<stop offset="0.822445" stop-color="#003221"/>
</linearGradient>
<linearGradient id="paint3_linear_50_100" x1="117.311" y1="97.0668" x2="161.297" y2="183.423" gradientUnits="userSpaceOnUse">
<stop stop-color="#00DC93"/>
<stop offset="0.822445" stop-color="#003221"/>
</linearGradient>
<linearGradient id="paint4_linear_50_100" x1="128.633" y1="282.885" x2="162.69" y2="341.72" gradientUnits="userSpaceOnUse">
<stop stop-color="#00DC93"/>
<stop offset="0.822445" stop-color="#003221"/>
</linearGradient>
<linearGradient id="paint5_linear_50_100" x1="28.5571" y1="56.7844" x2="63.43" y2="86.0782" gradientUnits="userSpaceOnUse">
<stop stop-color="#00DC93"/>
<stop offset="0.822445" stop-color="#003221"/>
</linearGradient>
<linearGradient id="paint6_linear_50_100" x1="206.939" y1="8.88948" x2="251.499" y2="46.3205" gradientUnits="userSpaceOnUse">
<stop stop-color="#00DC93"/>
<stop offset="0.822445" stop-color="#003221"/>
</linearGradient>
<linearGradient id="paint7_linear_50_100" x1="269.969" y1="156.998" x2="295.155" y2="178.155" gradientUnits="userSpaceOnUse">
<stop stop-color="#00DC93"/>
<stop offset="0.822445" stop-color="#003221"/>
</linearGradient>
<linearGradient id="paint8_linear_50_100" x1="12.6123" y1="234.359" x2="57.1722" y2="271.79" gradientUnits="userSpaceOnUse">
<stop stop-color="#00DC93"/>
<stop offset="0.822445" stop-color="#003221"/>
</linearGradient>
</defs>
</svg>
