<svg width="452" height="423" viewBox="0 0 452 423" fill="none" xmlns="http://www.w3.org/2000/svg">
<path d="M367.616 2.04797H371.712L374.784 19.456L381.952 35.84L390.144 47.104L400.384 57.344L413.696 65.536L430.08 71.68L439.296 73.728L448.512 74.752L447.488 83.968L439.296 108.544L432.128 124.928L421.888 141.312L411.648 154.624L401.408 165.888L394.24 172.032L388.096 179.2L370.688 192.512L354.304 202.752L344.064 208.896L329.728 214.016L316.416 219.136L292.864 225.28H286.72L269.312 208.896L257.024 197.632L240.64 182.272L227.328 169.984L223.232 165.888L215.04 158.72L209.92 153.6V146.432L215.04 129.024L224.256 107.52L229.376 97.28L236.544 86.016L250.88 68.608L261.12 57.344L269.312 50.176L274.432 46.08L278.528 41.984L302.08 26.624L323.584 15.36L346.112 7.16797L367.616 2.04797ZM314.368 69.632L302.08 72.704L284.672 81.92L277.504 89.088L270.336 100.352L267.264 109.568L266.24 114.688V128L270.336 141.312L277.504 152.576L285.696 160.768L300.032 168.96L308.224 171.008L314.368 172.032H328.704L344.064 168.96L355.328 162.816V160.768L359.424 158.72L367.616 149.504L374.784 135.168L376.832 126.976V115.712L373.76 103.424L367.616 92.16L358.4 81.92L344.064 73.728L334.848 70.656L328.704 69.632H314.368Z" fill="url(#paint0_linear_50_103)"/>
<path d="M315.392 77.824H327.68L339.968 80.896L352.256 87.04L359.424 94.208L365.568 104.448L367.616 110.592L368.64 123.904L366.592 134.144L361.472 144.384L352.256 154.624L343.04 160.768L333.824 163.84L327.68 164.864H316.416L303.104 161.792L293.888 156.672L283.648 147.456L277.504 137.216L274.432 125.952V116.736L277.504 104.448L283.648 94.208L290.816 87.04L303.104 80.896L315.392 77.824Z" fill="url(#paint1_linear_50_103)"/>
<path d="M224.256 53.248H242.688L250.88 55.296L249.856 59.392L238.592 71.68L231.424 80.896L224.256 92.16L216.064 108.544L206.848 130.048L202.752 144.384L198.656 143.36L191.488 136.192L184.32 130.048L179.2 123.904L174.08 120.832L161.792 108.544L153.6 101.376V97.28L160.768 90.112L172.032 80.896L179.2 73.728L192.512 63.488L208.896 56.32L224.256 53.248Z" fill="url(#paint2_linear_50_103)"/>
<path d="M390.144 186.368H393.216L394.24 206.848L393.216 220.16L388.096 233.472L381.952 243.712L375.808 250.88L367.616 258.048L352.256 272.384L347.136 277.504H343.04L332.8 268.288L315.392 251.904L302.08 239.616L296.96 234.496V232.448L326.656 223.232L345.088 215.04L355.328 210.944L379.904 194.56L390.144 186.368Z" fill="url(#paint3_linear_50_103)"/>
<path d="M321.536 294.912L327.68 295.936L332.8 300.032V308.224L325.632 316.416L316.416 325.632L308.224 332.8L290.816 349.184L275.456 363.52L262.144 375.808L258.048 379.904L249.856 387.072L242.688 394.24L234.496 401.408L227.328 408.576L219.136 415.744L214.016 420.864L212.992 421.888H203.776L198.656 417.792L197.632 410.624L199.68 405.504L208.896 396.288L217.088 389.12L225.28 381.952H227.328L229.376 377.856L238.592 368.64L246.784 361.472L264.192 345.088L279.552 330.752L294.912 316.416L308.224 304.128L317.44 295.936L321.536 294.912Z" fill="url(#paint4_linear_50_103)"/>
<path d="M384 0H412.672L432.128 3.072L444.416 6.144L449.536 25.6L451.584 49.152L450.56 66.56H441.344L421.888 61.44L408.576 54.272L398.336 46.08L391.168 36.864L385.024 26.624L380.928 14.336L379.904 1.024L384 0Z" fill="url(#paint5_linear_50_103)"/>
<path d="M122.88 109.568L130.048 110.592L134.144 114.688L135.168 121.856L131.072 128L113.664 144.384L98.304 158.72L82.944 173.056L69.632 185.344L53.248 200.704L49.152 204.8H47.104L45.056 208.896L36.864 216.064L26.624 225.28L19.456 232.448L13.312 236.544H5.12L1.024 232.448L0 230.4V223.232L7.168 215.04L13.312 209.92L18.432 204.8L31.744 191.488L39.936 184.32L57.344 167.936L70.656 155.648L87.04 140.288L100.352 128L116.736 112.64L122.88 109.568Z" fill="url(#paint6_linear_50_103)"/>
<path d="M187.392 206.848L191.488 207.872L203.776 219.136L211.968 226.304L219.136 233.472L224.256 238.592L229.376 243.712L228.352 249.856L224.256 254.976L220.16 259.072L208.896 264.192L183.296 271.36L159.744 276.48H154.624L155.648 268.288L162.816 240.64L169.984 221.184L176.128 212.992L187.392 206.848Z" fill="url(#paint7_linear_50_103)"/>
<path d="M205.824 161.792L209.92 163.84L225.28 178.176L237.568 189.44L253.952 204.8L269.312 219.136L277.504 226.304V229.376L242.688 241.664H237.568L227.328 231.424V229.376L223.232 227.328L211.968 216.064L200.704 206.848L191.488 198.656L192.512 192.512L204.8 162.816L205.824 161.792Z" fill="url(#paint8_linear_50_103)"/>
<path d="M111.616 165.888H119.808L125.952 171.008V179.2L118.784 187.392L108.544 196.608L91.1357 212.992L77.8237 225.28L61.4397 240.64L46.0797 254.976L40.9597 259.072L38.9117 260.096H30.7197L25.5997 254.976L24.5757 249.856L26.6237 244.736L39.9357 231.424L48.1277 224.256L65.5357 207.872L78.8477 195.584L95.2317 180.224L103.424 173.056L108.544 167.936L111.616 165.888Z" fill="url(#paint9_linear_50_103)"/>
<path d="M262.144 302.08L269.312 304.128L272.384 307.2L273.408 314.368L270.336 320.512L261.12 328.704L253.952 336.896L243.712 345.088L233.472 355.328L225.28 362.496L221.184 367.616L217.088 368.64L215.04 372.736L204.8 381.952L196.608 389.12L187.392 397.312L180.224 398.336L174.08 394.24L173.056 392.192V384L183.296 373.76L188.416 368.64L200.704 356.352L208.896 349.184L216.064 342.016L222.208 337.92L229.376 329.728L237.568 322.56L245.76 314.368L253.952 307.2L259.072 303.104L262.144 302.08Z" fill="url(#paint10_linear_50_103)"/>
<path d="M86.0157 345.088H93.1837L98.3037 349.184L99.3277 358.4L95.2317 364.544L91.1357 368.64H89.0877L87.0397 372.736L79.8717 378.88L71.6797 386.048L55.2957 401.408L37.8877 418.816L33.7917 421.888L24.5757 422.912L19.4557 419.84L17.4077 416.768V409.6L24.5757 401.408L31.7437 394.24L39.9357 387.072L55.2957 373.76L60.4157 367.616L68.6077 360.448L76.7997 352.256L86.0157 345.088Z" fill="url(#paint11_linear_50_103)"/>
<path d="M99.3278 285.696L106.496 286.72L111.616 291.84V299.008L104.448 307.2L97.2798 314.368H95.2318L93.1838 318.464L84.9918 326.656L76.7998 333.824L61.4398 347.136L46.0798 362.496L44.0318 363.52H36.8638L31.7438 360.448L29.6958 356.352V350.208L33.7918 344.064L43.0078 336.896L52.2238 327.68L57.3438 322.56L74.7518 306.176L83.9678 297.984L92.1598 290.816L97.2798 286.72L99.3278 285.696Z" fill="url(#paint12_linear_50_103)"/>
<path d="M209.92 301.056H219.136L223.232 304.128L224.256 313.344L222.208 318.464L212.992 327.68L204.8 334.848L190.464 347.136L167.936 369.664L160.768 374.784H153.6L147.456 369.664V359.424L161.792 345.088L172.032 336.896L180.224 328.704L185.344 323.584L202.752 307.2L209.92 301.056Z" fill="url(#paint13_linear_50_103)"/>
<path d="M112.64 211.968H122.88L125.952 212.992L128 217.088V224.256L124.928 229.376L116.736 236.544L109.568 243.712L98.3037 252.928L80.8957 270.336L72.7037 277.504L65.5357 283.648L63.4877 284.672H57.3437L52.2237 280.576L51.1997 278.528V270.336L58.3677 262.144L75.7757 245.76L86.0157 236.544L103.424 220.16L108.544 215.04L112.64 211.968Z" fill="url(#paint14_linear_50_103)"/>
<defs>
<linearGradient id="paint0_linear_50_103" x1="271.861" y1="36.679" x2="447.81" y2="223.003" gradientUnits="userSpaceOnUse">
<stop stop-color="#00DC93"/>
<stop offset="0.822445" stop-color="#003221"/>
</linearGradient>
<linearGradient id="paint1_linear_50_103" x1="298.889" y1="91.3269" x2="367.438" y2="164.838" gradientUnits="userSpaceOnUse">
<stop stop-color="#00DC93"/>
<stop offset="0.822445" stop-color="#003221"/>
</linearGradient>
<linearGradient id="paint2_linear_50_103" x1="178.855" y1="67.3864" x2="250.692" y2="143.361" gradientUnits="userSpaceOnUse">
<stop stop-color="#00DC93"/>
<stop offset="0.822445" stop-color="#003221"/>
</linearGradient>
<linearGradient id="paint3_linear_50_103" x1="322.215" y1="200.506" x2="394.053" y2="276.481" gradientUnits="userSpaceOnUse">
<stop stop-color="#00DC93"/>
<stop offset="0.822445" stop-color="#003221"/>
</linearGradient>
<linearGradient id="paint4_linear_50_103" x1="232.723" y1="314.61" x2="332.826" y2="420.191" gradientUnits="userSpaceOnUse">
<stop stop-color="#00DC93"/>
<stop offset="0.822445" stop-color="#003221"/>
</linearGradient>
<linearGradient id="paint5_linear_50_103" x1="398.513" y1="10.3258" x2="450.95" y2="66.277" gradientUnits="userSpaceOnUse">
<stop stop-color="#00DC93"/>
<stop offset="0.822445" stop-color="#003221"/>
</linearGradient>
<linearGradient id="paint6_linear_50_103" x1="35.091" y1="129.266" x2="135.195" y2="234.847" gradientUnits="userSpaceOnUse">
<stop stop-color="#00DC93"/>
<stop offset="0.822445" stop-color="#003221"/>
</linearGradient>
<linearGradient id="paint7_linear_50_103" x1="174.03" y1="217.65" x2="228.899" y2="276.011" gradientUnits="userSpaceOnUse">
<stop stop-color="#00DC93"/>
<stop offset="0.822445" stop-color="#003221"/>
</linearGradient>
<linearGradient id="paint8_linear_50_103" x1="213.818" y1="174.183" x2="276.744" y2="241.324" gradientUnits="userSpaceOnUse">
<stop stop-color="#00DC93"/>
<stop offset="0.822445" stop-color="#003221"/>
</linearGradient>
<linearGradient id="paint9_linear_50_103" x1="50.894" y1="180.503" x2="125.117" y2="259.638" gradientUnits="userSpaceOnUse">
<stop stop-color="#00DC93"/>
<stop offset="0.822445" stop-color="#003221"/>
</linearGradient>
<linearGradient id="paint10_linear_50_103" x1="199.108" y1="317.013" x2="275.061" y2="395.468" gradientUnits="userSpaceOnUse">
<stop stop-color="#00DC93"/>
<stop offset="0.822445" stop-color="#003221"/>
</linearGradient>
<linearGradient id="paint11_linear_50_103" x1="38.675" y1="357.161" x2="100.062" y2="421.183" gradientUnits="userSpaceOnUse">
<stop stop-color="#00DC93"/>
<stop offset="0.822445" stop-color="#003221"/>
</linearGradient>
<linearGradient id="paint12_linear_50_103" x1="50.9631" y1="297.769" x2="112.35" y2="361.791" gradientUnits="userSpaceOnUse">
<stop stop-color="#00DC93"/>
<stop offset="0.822445" stop-color="#003221"/>
</linearGradient>
<linearGradient id="paint13_linear_50_103" x1="167.394" y1="312.494" x2="225.572" y2="372.538" gradientUnits="userSpaceOnUse">
<stop stop-color="#00DC93"/>
<stop offset="0.822445" stop-color="#003221"/>
</linearGradient>
<linearGradient id="paint14_linear_50_103" x1="71.1378" y1="223.247" x2="128.477" y2="283.259" gradientUnits="userSpaceOnUse">
<stop stop-color="#00DC93"/>
<stop offset="0.822445" stop-color="#003221"/>
</linearGradient>
</defs>
</svg>
