<svg width="418" height="490" viewBox="0 0 418 490" fill="none" xmlns="http://www.w3.org/2000/svg">
<path fill-rule="evenodd" clip-rule="evenodd" d="M251 1.90193C249.206 3.69593 249 5.23493 249 16.8309C249 31.0459 249.678 32.9019 254.871 32.9019C259.583 32.9019 260 31.5889 260 16.7589C260 3.68993 259.891 2.93893 257.777 1.45893C254.84 -0.599066 253.407 -0.505066 251 1.90193ZM192.45 10.3379C190.956 12.6179 191.056 13.5279 194.004 24.5879C195.736 31.0859 197.864 37.1899 198.732 38.1519C202.086 41.8719 208.027 39.2539 207.971 34.0809C207.932 30.4879 202.432 11.1279 200.94 9.32993C199.007 7.00093 194.268 7.56393 192.45 10.3379ZM309.4 8.66693C307.543 9.90693 306.394 12.9619 303.415 24.5749C300.603 35.5379 300.585 35.7859 302.43 37.8249C304.552 40.1689 307.793 40.5089 310.315 38.6519C311.961 37.4399 317.93 17.6959 317.977 13.3069C318.019 9.43493 312.622 6.51493 309.4 8.66693ZM139.128 32.4659C137.991 33.9119 137.37 35.7639 137.704 36.7159C138.818 39.8879 149.134 57.7679 150.508 58.9079C152.789 60.8019 157.287 59.6689 158.892 56.7979C160.278 54.3159 160.052 53.6689 154.071 43.0279C146.342 29.2769 143.318 27.1399 139.128 32.4659ZM362.85 31.1519C360.094 33.3989 350 51.9439 350 54.7579C350 60.7799 356.371 61.9489 360.323 56.6519C364.195 51.4629 372 37.3609 372 35.5539C372 33.3529 368.453 29.9019 366.191 29.9019C365.196 29.9019 363.693 30.4649 362.85 31.1519ZM229 56.8589C198.23 62.4919 172.918 75.8549 150.436 98.3379C128.972 119.801 116.35 142.673 109.839 171.902C107.815 180.988 107.5 185.095 107.5 202.402C107.5 217.919 107.906 224.307 109.312 230.902C117.71 270.286 140.645 304.691 172.5 325.689C176.35 328.227 179.831 330.776 180.235 331.353C180.639 331.93 180.976 347.557 180.985 366.081C180.998 395.351 181.206 399.965 182.571 401.331C183.831 402.591 186.606 402.902 196.571 402.902H209V380.43V357.958L203.993 355.804C194.784 351.842 189.694 343.725 189.632 332.902C189.546 317.844 201.844 306.794 217.146 308.182C243.248 310.548 248.323 346.787 223.919 356.551L220 358.119V380.511V402.902H234.5H249V370.402C249 339.235 249.082 337.82 251 335.902C253.407 333.495 254.84 333.401 257.777 335.459C259.998 337.014 260 337.05 260 369.959V402.902H274.5H289V372.568V342.233L264.25 317.688C250.637 304.188 237.866 291.739 235.869 290.023C232.241 286.906 232.236 286.905 228.369 288.526C219.08 292.421 206.433 289.576 199.887 282.12C190.587 271.528 191.183 257.254 201.336 247.381C208.968 239.961 217.348 238.098 227.514 241.562C240.62 246.027 247.889 263.547 241.645 275.621L240.123 278.566L249.061 287.463L258 296.36V250.249V204.137L252.492 201.442C243.751 197.165 238.688 188.855 238.76 178.902C238.815 171.301 241.35 165.671 247.01 160.583C255.212 153.208 265.674 151.761 275.118 156.695C287.353 163.087 292.321 177.229 286.626 189.458C284.006 195.085 277.474 201.261 272.355 202.95L269 204.057V255.242V306.426L284.5 321.902L300 337.378V370.14V402.902H312.8C321.422 402.902 325.992 402.51 326.8 401.702C327.712 400.79 328 382.248 328 324.36V248.219L322.293 245.3C298.637 233.202 306.922 197.902 333.418 197.902C360.012 197.902 368.414 233.176 344.707 245.3L339 248.219V286.119C339 316.156 339.259 323.871 340.25 323.303C344.094 321.098 356.013 310.604 362.471 303.74C381.609 283.395 394.611 257.829 400.02 229.902C409.914 178.824 390.855 124.207 351.536 90.9609C331.565 74.0739 312.065 64.1829 287 58.2279C272.159 54.7019 244.365 54.0459 229 56.8589ZM92.557 68.1249C91.701 69.3469 91 70.9829 91 71.7589C91 72.5359 95.133 77.3859 100.184 82.5369C109.946 92.4909 112.907 93.8719 116.345 90.0729C119.334 86.7699 118.218 84.5799 108.731 75.1319C98.68 65.1229 95.595 63.7859 92.557 68.1249ZM400.184 75.2669C395.133 80.4179 391 85.2679 391 86.0449C391 88.8149 394.071 91.9019 396.826 91.9019C398.918 91.9019 401.653 89.7789 408.77 82.6329C418.24 73.1229 419.529 70.5729 416.429 67.4729C412.906 63.9509 409.838 65.4229 400.184 75.2669ZM257.256 166.547C247.81 171.203 247.594 186.538 256.906 191.353C260.824 193.379 267.472 193.327 271.001 191.242C272.547 190.329 274.754 187.905 275.906 185.856C282.746 173.686 269.853 160.337 257.256 166.547ZM36.086 174.315C31.75 178.706 30.853 180.18 31.339 182.118C31.669 183.431 36.228 189.429 41.469 195.445C46.711 201.462 51 207.23 51 208.262C51 209.295 49.465 212.674 47.588 215.771C43.591 222.368 39.668 231.967 37.522 240.402C35.94 246.619 34.087 248.886 30.559 248.925C29.426 248.937 22.917 249.381 16.093 249.912C0.654999 251.112 0 251.558 0 260.866C0 271.03 0.0340004 271.052 17.929 272.428C28.321 273.228 33.566 274.04 34.523 274.999C35.293 275.771 37.069 280.36 38.471 285.199C40.973 293.841 45.43 303.819 49.127 309.056C50.157 310.516 51 312.646 51 313.788C51 314.981 46.74 320.801 41 327.451C35.5 333.823 31 339.925 31 341.012C31 342.099 33.087 345.218 35.637 347.945C42.855 355.662 43.527 355.46 60.271 340.565C65.188 336.191 68.903 333.652 70.386 333.652C71.675 333.652 75.828 335.485 79.615 337.726C85.919 341.456 102.786 347.902 106.243 347.902C109.76 347.902 110.817 351.198 111.869 365.448C112.439 373.173 113.213 380.295 113.589 381.274C114.507 383.666 118.091 384.902 124.111 384.902C130.517 384.902 133.975 381.874 134.051 376.197C134.079 374.11 134.481 367.481 134.944 361.467C135.915 348.865 135.866 348.932 145.678 346.468C152.473 344.761 168 338.144 168 336.956C168 336.588 164.968 334.063 161.262 331.345C157.557 328.626 151.854 324.021 148.59 321.111C144.724 317.664 142.107 316.031 141.08 316.425C132.541 319.701 114.263 319.512 104.568 316.046C82.484 308.151 67.282 288.386 65.429 265.159C63.846 245.306 74.542 223.463 91.028 212.884L96 209.694L96.06 198.048C96.092 191.643 96.471 184.265 96.901 181.652C97.331 179.039 97.382 176.902 97.014 176.902C95.352 176.902 83.69 182.147 78.212 185.357C74.885 187.307 71.339 188.899 70.332 188.895C69.324 188.891 63.997 184.915 58.494 180.061C48.375 171.134 45.232 168.902 42.782 168.902C42.039 168.902 39.026 171.338 36.086 174.315ZM325.898 211.172C321.355 214.207 318.768 219.357 319.358 224.19C321.407 240.985 345.593 240.985 347.642 224.19C348.591 216.418 341.639 208.902 333.5 208.902C330.794 208.902 328.085 209.711 325.898 211.172ZM89.638 228.843C64.906 254.772 76.241 295.998 110.932 306.29C116.506 307.945 130.555 308.472 132.702 307.108C133.551 306.568 132.851 305.034 130.312 301.873C115.038 282.854 102.751 255.989 98.425 232.152C97.501 227.064 96.422 222.902 96.025 222.902C95.629 222.902 92.754 225.575 89.638 228.843ZM211.984 252.765C199.356 259.518 204.054 279.069 218.305 279.069C233.488 279.069 238.391 259.518 224.929 252.654C220.508 250.399 216.342 250.435 211.984 252.765ZM208.034 320.654C203.584 322.898 200.667 327.966 200.667 333.451C200.667 341.296 206.72 346.892 215.215 346.898C219.049 346.901 220.58 346.332 223.404 343.852C236.292 332.536 223.313 312.946 208.034 320.654ZM191 424.008C191 435.871 192.789 440.291 199.004 443.784C202.709 445.867 203.652 445.902 255.238 445.902H307.704L311.048 443.649C316.862 439.731 318.269 436.073 318.392 424.567L318.5 414.402L254.75 414.145L191 413.887V424.008ZM218.162 468.832C218.553 481.468 219.704 483.914 227.02 487.652C231.203 489.789 232.555 489.902 253.962 489.896C266.358 489.893 278.095 489.448 280.044 488.906C284.456 487.681 289.717 482.376 291.017 477.844C291.558 475.958 292 470.7 292 466.159V457.902H254.912H217.823L218.162 468.832Z" fill="url(#paint0_linear_50_89)"/>
<defs>
<linearGradient id="paint0_linear_50_89" x1="108.5" y1="76" x2="489.863" y2="398.346" gradientUnits="userSpaceOnUse">
<stop stop-color="#00DC93"/>
<stop offset="0.822445" stop-color="#003221"/>
</linearGradient>
</defs>
</svg>
