<svg width="598" height="298" viewBox="0 0 598 298" fill="none" xmlns="http://www.w3.org/2000/svg">
<path fill-rule="evenodd" clip-rule="evenodd" d="M226.296 0.945988C201.375 3.84199 177.116 19.144 163.104 40.803C153.357 55.872 149.151 70.365 149.151 88.89C149.151 97.863 149.687 103.506 151.049 108.89C158.349 137.746 177.971 160.519 204.746 171.21C217.966 176.488 222.243 177.072 251.621 177.608C277.409 178.078 279.257 177.994 281.259 176.25C282.93 174.795 287.773 158.725 303.516 102.39C314.584 62.79 324.082 29.36 324.624 28.102L325.609 25.814L359.443 26.102L393.278 26.39L398.171 29.416C404.93 33.597 408.7 39.917 409.308 48.087C409.717 53.577 409.413 55.098 406.947 59.883C403.462 66.647 397.532 71.314 390.506 72.82C387.235 73.522 373.075 73.908 352.299 73.862C326.054 73.804 319.016 74.063 317.956 75.122C317.223 75.855 315.473 80.421 314.068 85.269C311.719 93.373 311.637 94.272 313.056 96.438L314.6 98.793L358.858 99.092C401.574 99.38 403.274 99.464 407.617 101.514C413.671 104.372 418.418 109.277 421.401 115.758C425.863 125.454 423.322 137.012 414.952 145.091C407.702 152.088 409.56 151.89 351.205 151.89H298.729L296.276 154.14C293.639 156.559 289.101 171.382 290.156 174.131C291.517 177.678 294.796 177.89 347.914 177.873C405.527 177.853 408.645 177.59 420.558 171.74C424.648 169.731 429.394 166.169 433.558 161.983C443.798 151.69 448.605 140.141 448.581 125.89C448.565 116.561 447.368 111.25 443.415 102.967C440.47 96.797 431.482 86.44 425.762 82.625L423.407 81.055L426.482 76.586C436.265 62.368 437.298 43.007 429.133 26.933C423.768 16.372 412.187 6.83099 399.689 2.67499C393.4 0.583992 391.223 0.475982 349.117 0.164982C314.766 -0.0890182 304.579 0.119975 302.663 1.12098C300.432 2.28698 298.326 9.10598 279.441 76.32C268.018 116.975 258.097 150.603 257.395 151.049C255.081 152.517 228.51 152.01 222.077 150.375C204.456 145.896 188.297 132.751 180.54 116.586C171.727 98.219 171.776 79.043 180.682 60.988C186.41 49.375 197.746 37.84 208.617 32.561C221.435 26.338 224.661 25.89 256.636 25.89C278.309 25.89 285.659 25.58 286.987 24.609C289.031 23.114 293.963 6.55597 293.138 3.95697C291.982 0.312974 288.419 -0.114 260.32 0.0209999C245.358 0.0939999 230.047 0.509988 226.296 0.945988ZM96.6167 29.854C90.5837 31.766 5.90669 76.087 3.90269 78.383C-1.69731 84.795 -1.21233 94.607 4.98167 100.237C8.28767 103.242 91.7917 146.465 97.3667 148.056C99.8977 148.779 101.595 148.551 105.046 147.025C112.302 143.815 114.767 135.928 110.633 129.148C108.958 126.4 103.087 123.123 72.1367 107.654C52.0507 97.616 35.6167 89.172 35.6167 88.89C35.6167 88.608 52.0507 80.164 72.1367 70.126C103.087 54.657 108.958 51.38 110.633 48.632C114.691 41.976 112.305 34.014 105.301 30.833C100.708 28.748 100.264 28.698 96.6167 29.854ZM492.688 30.601C487.746 33.179 485.112 37.234 485.143 42.213C485.192 50.031 485.882 50.508 525.694 70.203C545.914 80.206 562.461 88.615 562.464 88.89C562.468 89.165 546.468 97.265 526.908 106.89C507.349 116.515 490.074 125.645 488.519 127.179C483.067 132.559 484.169 141.374 490.91 146.303C496.597 150.46 497.979 149.934 545.617 125.494C570.092 112.938 591.172 101.702 592.462 100.527C595.904 97.39 597.617 93.523 597.617 88.89C597.617 84.254 595.901 80.383 592.462 77.262C589.362 74.448 502.807 30.068 499.041 29.36C497.223 29.019 494.82 29.488 492.688 30.601ZM35.2407 229.427C34.8977 230.322 34.6167 233.955 34.6167 237.502V243.95L31.7007 241.794C27.3947 238.61 18.1867 239.408 12.4157 243.463C0.0646896 252.144 0.0486975 272.624 12.3867 281.296C18.1497 285.347 26.0257 286.026 31.2807 282.926C34.7037 280.906 35.1207 280.859 36.2187 282.361C37.1287 283.605 38.7107 283.928 42.7677 283.696L48.1167 283.39V255.89V228.39L41.9907 228.096C37.0757 227.859 35.7417 228.122 35.2407 229.427ZM194.241 229.427C193.303 231.871 193.52 281.189 194.475 282.695C195.042 283.589 197.161 283.903 201.21 283.695L207.117 283.39V255.89V228.39L200.991 228.096C196.076 227.859 194.742 228.122 194.241 229.427ZM356.087 229.108C355.81 229.83 355.703 242.339 355.85 256.906L356.117 283.39L361.466 283.696C365.523 283.928 367.105 283.605 368.015 282.361C369.113 280.859 369.53 280.906 372.953 282.926C381.022 287.687 392.743 283.636 398.312 274.162C400.664 270.161 401.117 268.259 401.117 262.39C401.117 256.521 400.664 254.619 398.312 250.618C396.769 247.993 393.652 244.618 391.385 243.118C387.924 240.827 386.186 240.39 380.545 240.39C375.392 240.39 373.347 240.825 371.766 242.255L369.705 244.12L369.411 236.255L369.117 228.39L362.854 228.092C358.382 227.879 356.447 228.17 356.087 229.108ZM461.919 230.069C456.928 232.037 456.709 232.283 456.419 236.254C456.213 239.073 455.639 240.421 454.617 240.488C450.554 240.752 450.513 240.818 450.817 246.64C451.101 252.083 451.264 252.407 453.867 252.706L456.617 253.023V268.456V283.89H463.098C469.277 283.89 469.61 283.767 470.245 281.236C470.611 279.776 470.635 272.801 470.297 265.736L469.682 252.89H472.45C476.297 252.89 477.617 251.188 477.617 246.225C477.617 241.72 475.515 239.486 471.856 240.099C470.394 240.344 470.169 239.725 470.445 236.22C470.758 232.245 469.358 227.816 467.832 227.955C467.439 227.991 464.778 228.942 461.919 230.069ZM492.596 229.722C486.051 232.136 485.617 232.59 485.617 237.016C485.617 240.468 485.359 240.943 483.758 240.435C480.92 239.534 479.465 242.162 479.809 247.562C480.091 251.984 480.346 252.416 482.841 252.704L485.566 253.018L485.841 268.204L486.117 283.39H492.617H499.117L499.393 268.201L499.668 253.013L502.893 252.701C506.045 252.397 506.124 252.269 506.425 246.985C506.76 241.084 505.68 239.503 501.915 240.387C499.85 240.872 499.694 240.52 499.415 234.726C499.251 231.329 498.667 228.437 498.117 228.301C497.567 228.165 495.082 228.804 492.596 229.722ZM69.0606 241.776C66.8296 242.789 63.3897 245.506 61.4147 247.813C51.8967 258.932 55.3127 275.238 68.6167 282.191C73.3447 284.662 74.9907 285.011 80.3457 284.681C85.2497 284.379 87.4677 283.669 90.7667 281.344C93.0727 279.719 95.1107 277.928 95.2967 277.363C95.4827 276.798 94.3587 274.808 92.7997 272.94L89.9637 269.543L85.2257 271.837C79.2247 274.742 74.1647 274.163 70.6977 270.174L68.2777 267.39L81.1977 267.146C98.9577 266.81 98.6167 266.932 98.6167 260.936C98.6167 254.687 97.3037 251.246 93.3057 247.018C86.8447 240.185 77.1686 238.093 69.0606 241.776ZM101.867 240.552C101.18 240.83 100.615 241.582 100.612 242.223C100.606 243.722 115.65 280.967 116.958 282.69C117.56 283.483 119.53 283.872 122.013 283.69L126.082 283.39L134.28 263.89C138.789 253.165 142.51 243.651 142.548 242.747C142.634 240.712 140.615 239.89 135.535 239.89C130.07 239.89 128.601 241.835 125.117 253.68C123.467 259.29 121.865 263.883 121.556 263.885C121.248 263.888 119.488 258.917 117.647 252.84C115.508 245.783 113.657 241.446 112.523 240.84C110.679 239.853 104.044 239.674 101.867 240.552ZM157.117 241.786C149.216 245.444 144.474 253.131 144.475 262.279C144.475 265.09 144.958 268.658 145.547 270.208C150.947 284.403 170.746 289.633 181.353 279.668C184.309 276.891 184.211 275.833 180.685 272.455L177.753 269.646L173.369 271.768C170.958 272.935 167.98 273.89 166.752 273.89C162.582 273.89 157.617 270.312 157.617 267.308C157.617 267.078 163.66 266.89 171.046 266.89C187.081 266.89 188.222 266.33 187.215 258.958C185.26 244.654 169.878 235.878 157.117 241.786ZM228.117 241.279C219.467 245.058 214.277 252.974 214.277 262.39C214.277 275.263 223.835 284.89 236.617 284.89C242.579 284.89 248.008 282.836 251.959 279.087C263.847 267.803 260.342 247.685 245.399 241.443C240.905 239.566 232.227 239.483 228.117 241.279ZM266.863 241.044C265.111 242.796 265.068 294.941 266.817 296.69C268.373 298.246 276.861 298.246 278.417 296.69C279.149 295.958 279.623 292.348 279.632 287.44C279.641 283.013 279.978 279.866 280.382 280.448C282.219 283.093 286.365 284.889 290.59 284.868C313.082 284.759 319.76 251.883 299.302 241.98C291.857 238.376 282.326 239.829 279.564 244.989C278.498 246.981 278.382 246.928 276.784 243.729C275.435 241.026 274.449 240.334 271.613 240.094C269.685 239.932 267.548 240.359 266.863 241.044ZM418.821 242.018C411.92 245.434 406.611 253.96 406.623 261.608C406.633 268.351 408.565 272.934 413.45 277.798C421.085 285.4 430.255 286.918 439.688 282.14C446.199 278.842 446.943 276.535 442.781 272.547L439.865 269.753L436.006 271.822C430.254 274.904 426.104 274.547 422.29 270.64L419.117 267.39L433.117 266.89C440.817 266.615 447.68 266.026 448.367 265.581C450.209 264.389 449.847 256.981 447.721 252.39C442.673 241.487 429.468 236.748 418.821 242.018ZM523.617 241.484C510.21 247.291 505.963 264.477 515.005 276.332C520.745 283.858 533.453 286.988 542.117 283.009C549.944 279.415 550.956 276.222 545.757 271.517C543.762 269.712 543.597 269.721 539.1 271.898C533.922 274.405 528.684 274.166 525.493 271.278C521.3 267.483 522.862 266.89 537.046 266.89C553.095 266.89 554.2 266.346 553.128 258.979C551.066 244.804 536.241 236.016 523.617 241.484ZM561.287 241.142C559.75 242.266 559.602 244.503 559.846 262.892L560.117 283.39H566.617H573.117L573.617 269.056C574.06 256.356 574.338 254.562 576.058 253.306C578.621 251.436 582.629 251.51 585.441 253.479C588.318 255.495 590.091 254.8 592.608 250.674C595.408 246.08 595.191 245.311 590.279 242.432C584.615 239.113 579.355 239.09 575.06 242.365L571.815 244.841L570.193 242.365C568.39 239.613 564.17 239.034 561.287 241.142ZM72.2517 252.963C70.8027 254.102 69.6167 255.452 69.6167 255.963C69.6167 256.473 73.2167 256.89 77.6167 256.89C86.0417 256.89 86.9867 256.26 83.6167 252.89C80.9877 250.261 75.6417 250.296 72.2517 252.963ZM159.822 253.64L157.117 256.39L161.897 256.696C164.526 256.864 168.576 256.864 170.897 256.696L175.117 256.39L172.412 253.64C170.458 251.653 168.712 250.89 166.117 250.89C163.522 250.89 161.776 251.653 159.822 253.64ZM422.791 253.204C421.595 254.477 420.617 255.827 420.617 256.204C420.617 256.582 424.217 256.89 428.617 256.89C433.017 256.89 436.617 256.518 436.617 256.064C436.617 255.61 435.575 254.26 434.303 253.064C431.131 250.085 425.66 250.151 422.791 253.204ZM526.252 252.963C524.803 254.102 523.617 255.452 523.617 255.963C523.617 256.473 527.217 256.89 531.617 256.89C537.922 256.89 539.617 256.584 539.617 255.447C539.617 253.3 535.605 250.89 532.029 250.89C530.301 250.89 527.701 251.823 526.252 252.963ZM20.3667 252.97C18.0507 254.319 15.6167 259.147 15.6167 262.39C15.6167 265.763 18.1177 270.553 20.5617 271.86C23.2957 273.324 27.2417 273.135 30.6367 271.38C34.3617 269.453 35.6167 267.06 35.6167 261.879C35.6167 256.181 31.4357 251.877 25.9437 251.92C23.8387 251.937 21.3287 252.409 20.3667 252.97ZM230.916 253.393C229.736 254.22 228.232 256.528 227.574 258.521C224.515 267.791 232.455 275.655 240.96 271.78C246.844 269.098 247.309 257.476 241.704 253.172C239.49 251.472 233.483 251.595 230.916 253.393ZM283.727 253.286C276.923 257.057 277.148 268.533 284.089 271.695C290.426 274.582 297.014 271.619 298.19 265.353C300.029 255.551 291.891 248.761 283.727 253.286ZM372.984 253.662C368.575 257.234 367.433 262.699 370.042 267.745C372.826 273.129 380.609 274.521 385.311 270.477C387.772 268.36 388.117 267.366 388.117 262.39C388.117 257.414 387.772 256.42 385.311 254.303C381.942 251.405 376.143 251.104 372.984 253.662ZM320.031 259.255C319.73 260.038 319.626 262.414 319.8 264.535L320.117 268.39H333.117H346.117V263.39V258.39L333.347 258.11C323.03 257.884 320.472 258.104 320.031 259.255Z" fill="white"/>
</svg>
