<svg width="598" height="178" viewBox="0 0 598 178" fill="none" xmlns="http://www.w3.org/2000/svg">
<path fill-rule="evenodd" clip-rule="evenodd" d="M226.296 0.945988C201.375 3.84199 177.116 19.144 163.104 40.803C153.357 55.872 149.151 70.365 149.151 88.89C149.151 97.863 149.687 103.506 151.049 108.89C158.349 137.746 177.971 160.519 204.746 171.21C217.966 176.488 222.243 177.072 251.621 177.608C277.409 178.078 279.257 177.994 281.259 176.25C282.93 174.795 287.773 158.725 303.516 102.39C314.584 62.79 324.082 29.36 324.624 28.102L325.609 25.814L359.443 26.102L393.278 26.39L398.171 29.416C404.93 33.597 408.7 39.917 409.308 48.087C409.717 53.577 409.413 55.098 406.947 59.883C403.462 66.647 397.532 71.314 390.506 72.82C387.235 73.522 373.075 73.908 352.299 73.862C326.054 73.804 319.016 74.063 317.956 75.122C317.223 75.855 315.473 80.421 314.068 85.269C311.719 93.373 311.637 94.272 313.056 96.438L314.6 98.793L358.858 99.092C401.574 99.38 403.274 99.464 407.617 101.514C413.671 104.372 418.418 109.277 421.401 115.758C425.863 125.454 423.322 137.012 414.952 145.091C407.702 152.088 409.56 151.89 351.205 151.89H298.729L296.276 154.14C293.639 156.559 289.101 171.382 290.156 174.131C291.517 177.678 294.796 177.89 347.914 177.873C405.527 177.853 408.645 177.59 420.558 171.74C424.648 169.731 429.394 166.169 433.558 161.983C443.798 151.69 448.605 140.141 448.581 125.89C448.565 116.561 447.368 111.25 443.415 102.967C440.47 96.797 431.482 86.44 425.762 82.625L423.407 81.055L426.482 76.586C436.265 62.368 437.298 43.007 429.133 26.933C423.768 16.372 412.187 6.83099 399.689 2.67499C393.4 0.583992 391.223 0.475982 349.117 0.164982C314.766 -0.0890182 304.579 0.119975 302.663 1.12098C300.432 2.28698 298.326 9.10598 279.441 76.32C268.018 116.975 258.097 150.603 257.395 151.049C255.081 152.517 228.51 152.01 222.077 150.375C204.456 145.896 188.297 132.751 180.54 116.586C171.727 98.219 171.776 79.043 180.682 60.988C186.41 49.375 197.746 37.84 208.617 32.561C221.435 26.338 224.661 25.89 256.636 25.89C278.309 25.89 285.659 25.58 286.987 24.609C289.031 23.114 293.963 6.55597 293.138 3.95697C291.982 0.312974 288.419 -0.114 260.32 0.0209999C245.358 0.0939999 230.047 0.509988 226.296 0.945988ZM96.6167 29.854C90.5837 31.766 5.90669 76.087 3.90269 78.383C-1.69731 84.795 -1.21233 94.607 4.98167 100.237C8.28767 103.242 91.7917 146.465 97.3667 148.056C99.8977 148.779 101.595 148.551 105.046 147.025C112.302 143.815 114.767 135.928 110.633 129.148C108.958 126.4 103.087 123.123 72.1367 107.654C52.0507 97.616 35.6167 89.172 35.6167 88.89C35.6167 88.608 52.0507 80.164 72.1367 70.126C103.087 54.657 108.958 51.38 110.633 48.632C114.691 41.976 112.305 34.014 105.301 30.833C100.708 28.748 100.264 28.698 96.6167 29.854ZM492.688 30.601C487.746 33.179 485.112 37.234 485.143 42.213C485.192 50.031 485.882 50.508 525.694 70.203C545.914 80.206 562.461 88.615 562.464 88.89C562.468 89.165 546.468 97.265 526.908 106.89C507.349 116.515 490.074 125.645 488.519 127.179C483.067 132.559 484.169 141.374 490.91 146.303C496.597 150.46 497.979 149.934 545.617 125.494C570.092 112.938 591.172 101.702 592.462 100.527C595.904 97.39 597.617 93.523 597.617 88.89C597.617 84.254 595.901 80.383 592.462 77.262C589.362 74.448 502.807 30.068 499.041 29.36C497.223 29.019 494.82 29.488 492.688 30.601Z" fill="white"/>
</svg>
