<svg width="395" height="451" viewBox="0 0 395 451" fill="none" xmlns="http://www.w3.org/2000/svg">
<path d="M155.648 13.312H173.056L179.2 17.408L183.296 21.504L188.416 20.48L194.56 17.408H207.872L214.016 20.48L221.184 28.672L222.208 32.768L230.4 31.744H241.664L242.688 34.816L237.568 46.08L233.472 64.512L232.448 71.68L227.328 70.656L205.824 60.416L192.512 56.32L172.032 53.248H156.672L137.216 56.32L119.808 61.44L103.424 69.632L90.112 78.848L78.848 88.064L67.584 99.328L63.488 106.496L54.272 121.856L46.08 141.312L41.984 160.768L40.96 171.008V183.296L44.032 203.776L49.152 221.184L57.344 237.568L65.536 249.856L69.632 256L78.848 266.24L95.232 278.528L112.64 288.768L132.096 295.936L146.432 299.008L154.624 300.032H173.056L192.512 296.96L210.944 290.816L227.328 282.624L240.64 273.408L250.88 264.192L258.048 257.024L269.312 241.664L278.528 224.256L282.624 212.992L286.72 188.416V156.672L288.768 155.648L304.128 159.744L322.56 161.792L326.656 166.912L328.704 175.104L327.68 183.296L324.608 189.44L319.488 195.584L320.512 200.704L322.56 203.776L323.584 218.112L321.536 225.28L314.368 232.448L308.224 236.544L309.248 241.664V254.976L305.152 263.168L295.936 268.288L287.744 271.36L286.72 274.432V281.6L283.648 289.792L278.528 295.936L273.408 299.008L261.12 300.032L258.048 302.08L254.976 311.296L249.856 317.44L241.664 321.536H229.376L224.256 320.512L216.064 331.776L208.896 335.872L198.656 336.896L189.44 333.824L187.392 331.776L182.272 332.8L174.08 339.968L171.008 340.992H156.672L148.48 334.848L145.408 331.776L140.288 332.8L134.144 335.872L124.928 336.896L115.712 333.824L110.592 328.704L106.496 321.536L102.4 320.512L99.328 321.536H86.016L78.848 317.44L72.704 310.272L69.632 301.056L64.512 300.032L53.248 297.984L45.056 290.816L41.984 284.672L40.96 270.336L31.744 268.288L27.648 266.24V264.192L23.552 262.144L19.456 253.952V242.688L20.48 236.544L19.456 234.496L12.288 230.4L7.168 224.256L5.12 221.184V206.848L9.216 199.68L8.192 194.56L2.048 187.392L0 182.272V171.008L4.096 162.816L9.216 157.696L8.192 152.576L5.12 146.432V133.12L10.24 124.928L15.36 120.832L19.456 118.784L20.48 113.664L19.456 110.592V99.328L24.576 91.136L29.696 86.016L40.96 82.944L41.984 68.608L47.104 60.416L52.224 56.32L54.272 55.296L70.656 54.272L71.68 46.08L74.752 39.936L81.92 33.792L87.04 31.744H98.304L104.448 32.768L107.52 29.696L111.616 23.552L116.736 19.456L119.808 17.408H134.144L141.312 21.504L146.432 20.48L153.6 14.336L155.648 13.312Z" fill="url(#paint0_linear_50_102)"/>
<path d="M155.648 61.44H174.08L192.512 64.512L207.872 69.632L224.256 77.824L232.448 83.968L237.568 106.496L246.784 123.904L258.048 137.216L268.288 144.384V146.432L272.384 147.456L276.48 149.504L278.528 156.672L279.552 164.864V188.416L276.48 205.824L271.36 221.184L262.144 238.592L251.904 251.904L242.688 262.144L234.496 268.288L224.256 275.456L207.872 283.648L189.44 289.792L175.104 291.84H153.6L135.168 288.768L119.808 283.648L101.376 273.408L90.1119 265.216L81.9199 258.048L74.7519 250.88L64.5119 234.496L55.2959 215.04L51.1999 200.704L49.1519 184.32V167.936L52.2239 148.48L58.3679 131.072L67.5839 113.664L74.7519 104.448L77.8239 99.328L88.0639 90.112L101.376 79.872L117.76 70.656L136.192 64.512L155.648 61.44ZM151.552 92.16L136.192 95.232L119.808 103.424L110.592 109.568L100.352 119.808L92.1599 131.072L84.9919 143.36L79.8719 159.744L78.8479 165.888V188.416L82.9439 204.8L91.1359 222.208L102.4 235.52L112.64 245.76L125.952 253.952L142.336 260.096L151.552 262.144L166.912 263.168L182.272 261.12L198.656 256L215.04 245.76L227.328 234.496L237.568 222.208L241.664 215.04L247.808 195.584L249.856 182.272V172.032L247.808 157.696L240.64 136.192L228.352 119.808L220.16 111.616L206.848 102.4L192.512 95.232L176.128 92.16H151.552Z" fill="url(#paint1_linear_50_102)"/>
<path d="M304.128 0H329.728L345.088 4.096L359.424 11.264L368.64 18.432L377.856 27.648L386.048 40.96L392.192 56.32L394.24 68.608V82.944L392.192 94.208L388.096 106.496L380.928 119.808L370.688 132.096L356.352 142.336L343.04 148.48L331.776 151.552L323.584 152.576H310.272L293.888 149.504L283.648 145.408L271.36 137.216L266.24 134.144L257.024 124.928L247.808 110.592L242.688 97.28L241.664 93.184V58.368L245.76 46.08L252.928 32.768L262.144 21.504L271.36 13.312L282.624 7.168L294.912 2.048L304.128 0ZM351.232 47.104L342.016 54.272L322.56 73.728L315.392 81.92L304.128 93.184L300.032 92.16L283.648 75.776H279.552L278.528 82.944L285.696 91.136L292.864 98.304L300.032 104.448H305.152L321.536 89.088L336.896 72.704L353.28 56.32L357.376 52.224L355.328 48.128L351.232 47.104Z" fill="url(#paint2_linear_50_102)"/>
<path d="M161.792 99.328L177.152 100.352L192.512 104.448L205.824 111.616L215.04 118.784L225.28 129.024L233.472 142.336L236.544 148.48L239.616 161.792L240.64 169.984V183.296L237.568 199.68L234.496 209.92L228.352 221.184L225.28 222.208L223.232 226.304L219.136 231.424L204.8 242.688L187.392 250.88L169.984 253.952H158.72L142.336 250.88L129.024 245.76L117.76 238.592L112.64 233.472L104.448 225.28L98.304 217.088L92.16 204.8L88.064 189.44V163.84L92.16 148.48L101.376 132.096L112.64 119.808L117.76 114.688L132.096 106.496L142.336 102.4L151.552 100.352L161.792 99.328ZM159.744 129.024L153.6 133.12L147.456 142.336L143.36 148.48V150.528L132.096 152.576L121.856 155.648L115.712 160.768L113.664 165.888L114.688 175.104L120.832 183.296L125.952 188.416L128 190.464V215.04L131.072 220.16L137.216 225.28H146.432L161.792 219.136L168.96 220.16L182.272 225.28H191.488L197.632 221.184L200.704 212.992V190.464L204.8 185.344V183.296L208.896 181.248L214.016 173.056V164.864L210.944 159.744L206.848 155.648L186.368 149.504L178.176 137.216L174.08 132.096L168.96 129.024H159.744Z" fill="url(#paint3_linear_50_102)"/>
<path d="M76.8 327.68L82.944 328.704L87.04 329.728H101.376L110.592 339.968L119.808 344.064H134.144L139.264 342.016H144.384L146.432 346.112L144.384 350.208H142.336L140.288 356.352L125.952 380.928L119.808 391.168L110.592 406.528L103.424 420.864L95.232 434.176L84.992 450.56H82.944L71.68 408.576L70.656 407.552L62.464 408.576L30.72 417.792H26.624L29.696 408.576L32.768 404.48L37.888 395.264L52.224 370.688L61.44 355.328L69.632 342.016L72.704 334.848L76.8 327.68Z" fill="url(#paint4_linear_50_102)"/>
<path d="M247.808 327.68L251.904 328.704L266.24 353.28L275.456 368.64L286.72 390.144L289.792 395.264V397.312H291.84L302.08 415.744V417.792L293.888 416.768L263.168 407.552H257.024L252.928 420.864L245.76 449.536H241.664L238.592 442.368L229.376 427.008L214.016 400.384L204.8 385.024L198.656 374.784L191.488 360.448L182.272 345.088L184.32 342.016L191.488 343.04L194.56 344.064H207.872L217.088 339.968L225.28 332.8L227.328 329.728H241.664L247.808 327.68Z" fill="url(#paint5_linear_50_102)"/>
<path d="M160.768 138.24H167.936L168.96 141.312H171.008L180.224 156.672L196.608 161.792L204.8 164.864V173.056L199.68 179.2L195.584 183.296L191.488 190.464L192.512 211.968L188.416 217.088L179.2 215.04L166.912 209.92L158.72 210.944L144.384 217.088L138.24 216.064L137.216 215.04V189.44L131.072 181.248L122.88 172.032V165.888L126.976 162.816L146.432 157.696L150.528 153.6L158.72 140.288L160.768 138.24Z" fill="url(#paint6_linear_50_102)"/>
<defs>
<linearGradient id="paint0_linear_50_102" x1="85.335" y1="64.1466" x2="344.028" y2="321.258" gradientUnits="userSpaceOnUse">
<stop stop-color="#00DC93"/>
<stop offset="0.822445" stop-color="#003221"/>
</linearGradient>
<linearGradient id="paint1_linear_50_102" x1="108.966" y1="97.1831" x2="290.856" y2="277.397" gradientUnits="userSpaceOnUse">
<stop stop-color="#00DC93"/>
<stop offset="0.822445" stop-color="#003221"/>
</linearGradient>
<linearGradient id="paint2_linear_50_102" x1="281.274" y1="23.6699" x2="401.726" y2="143.012" gradientUnits="userSpaceOnUse">
<stop stop-color="#00DC93"/>
<stop offset="0.822445" stop-color="#003221"/>
</linearGradient>
<linearGradient id="paint3_linear_50_102" x1="127.674" y1="123.316" x2="249.716" y2="242.632" gradientUnits="userSpaceOnUse">
<stop stop-color="#00DC93"/>
<stop offset="0.822445" stop-color="#003221"/>
</linearGradient>
<linearGradient id="paint4_linear_50_102" x1="57.7274" y1="346.743" x2="154.681" y2="440.402" gradientUnits="userSpaceOnUse">
<stop stop-color="#00DC93"/>
<stop offset="0.822445" stop-color="#003221"/>
</linearGradient>
<linearGradient id="paint5_linear_50_102" x1="213.375" y1="346.584" x2="309.546" y2="440.267" gradientUnits="userSpaceOnUse">
<stop stop-color="#00DC93"/>
<stop offset="0.822445" stop-color="#003221"/>
</linearGradient>
<linearGradient id="paint6_linear_50_102" x1="144.147" y1="150.472" x2="206.37" y2="214.524" gradientUnits="userSpaceOnUse">
<stop stop-color="#00DC93"/>
<stop offset="0.822445" stop-color="#003221"/>
</linearGradient>
</defs>
</svg>
