<svg width="450" height="423" viewBox="0 0 450 423" fill="none" xmlns="http://www.w3.org/2000/svg">
<path fill-rule="evenodd" clip-rule="evenodd" d="M192.518 2.75C192.225 4.263 191.012 14.725 189.823 26C188.628 37.339 187.077 47.437 186.354 48.598C185.522 49.932 181.674 51.873 175.784 53.93C170.689 55.709 163.015 58.928 158.729 61.082C154.444 63.237 150.138 65 149.16 65C148.182 65 138.956 58.25 128.658 50C118.359 41.75 109.582 35 109.154 35C108.148 35 63.8933 79.272 63.8933 80.278C63.8933 80.697 70.6433 89.466 78.8933 99.765C87.1433 110.063 93.8933 119.289 93.8933 120.267C93.8933 121.245 92.1303 125.551 89.9753 129.836C87.8213 134.122 84.6023 141.796 82.8233 146.891C80.7663 152.781 78.8253 156.629 77.4913 157.461C76.3303 158.184 66.2323 159.735 54.8933 160.93C43.6183 162.119 33.1553 163.332 31.6433 163.625L28.8933 164.159V177.579V191H76.2253H123.557L125.184 181.091C128.029 163.757 133.99 149.434 143.936 136.028C178.091 89.993 243.648 81.539 288.458 117.392C298.091 125.1 304.137 131.987 311.341 143.462C319.271 156.093 325.893 176.173 325.893 187.588V191H373.893H421.893V177.579V164.159L419.143 163.625C417.631 163.332 407.168 162.141 395.893 160.978C384.618 159.816 374.452 158.488 373.301 158.026C371.806 157.426 370.297 154.576 368.015 148.041C366.259 143.01 362.858 134.855 360.459 129.917C358.059 124.979 356.307 120.165 356.564 119.22C356.822 118.274 363.725 109.175 371.905 99L386.778 80.5L364.094 57.75C351.617 45.237 341.181 35.003 340.901 35.008C340.622 35.012 331.936 41.762 321.599 50.008C311.263 58.253 302.211 65 301.483 65C300.756 65 295.938 63.015 290.777 60.59C285.616 58.164 277.793 54.945 273.393 53.437C268.993 51.929 264.859 50.201 264.205 49.597C263.263 48.726 257.893 7.759 257.893 1.437C257.893 0.217 252.992 0 225.472 0H193.052L192.518 2.75ZM211.359 106.384C191.366 109.649 174.266 118.614 160.328 133.138C151.744 142.083 148.019 147.441 142.877 158.241C138.426 167.59 136.099 175.637 135.212 184.75L134.604 191H225.364H316.123L315.42 185.373C311.581 154.642 292.492 128.109 264.393 114.445C248.514 106.724 228.193 103.635 211.359 106.384ZM16.1293 201.979C10.9373 203.21 5.12326 207.645 2.66326 212.251L0.393263 216.5L0.082262 308.5C-0.144738 375.624 0.0852643 401.954 0.932264 405.876C2.35426 412.46 8.21426 418.889 14.5093 420.77C20.0073 422.413 429.314 422.566 435.214 420.928C437.315 420.344 440.756 418.311 442.861 416.41C450.394 409.604 449.896 417.043 449.871 311.849C449.85 222.751 449.748 217.277 448.028 213.491C445.422 207.756 440.045 203.413 433.923 202.1C427.925 200.813 21.5383 200.696 16.1293 201.979ZM205.893 221.886C201.218 222.913 194.503 224.934 190.971 226.377L184.548 229H121.331C49.0953 229 55.0773 228.18 52.9303 238.376C51.9403 243.078 50.8633 245.081 47.5433 248.396C43.6213 252.312 37.7763 255 33.1823 255C32.0943 255 30.4583 255.823 29.5483 256.829C28.0523 258.482 27.8933 263.725 27.8933 311.394C27.8933 343.634 28.2713 364.838 28.8653 365.948C29.4883 367.111 31.5473 368.021 34.5923 368.478C45.4913 370.112 51.7943 376.273 53.5033 386.962C54.7093 394.506 49.8713 394 120.837 394C183.613 394 184.716 394.034 189.418 396.114C199.294 400.483 207.139 402.169 220.166 402.723C235.682 403.384 245.062 402.049 257.531 397.404L266.67 394H330.225H393.78L395.336 391.777C396.192 390.555 396.903 388.418 396.915 387.027C396.984 379.087 404.553 370.863 413.58 368.921C416.777 368.233 419.956 367.239 420.643 366.712C421.616 365.967 421.893 353.727 421.893 311.5C421.893 269.294 421.615 257.024 420.643 256.249C419.956 255.701 417.288 254.948 414.716 254.576C405.845 253.293 398.39 245.905 396.982 237.002C396.468 233.749 395.426 231.131 394.324 230.326C392.863 229.258 380.168 229 329.03 229H265.55L259.358 226.523C248.089 222.015 241.885 220.809 227.893 220.406C217.305 220.102 212.56 220.421 205.893 221.886ZM211.94 231.138C196.361 233.721 179.213 242.609 167.886 253.972C151.053 270.859 143 291.747 144.183 315.448C144.86 329.001 146.603 335.854 152.333 347.5C160.42 363.935 173.067 376.561 189.393 384.5C200.766 390.03 207.888 391.928 220.105 392.685C253.194 394.735 283.425 377.167 297.86 347.5C304.615 333.616 306.285 326.32 306.215 311C306.167 300.479 305.739 297.105 303.513 289.693C298.979 274.593 292.082 263.214 281.17 252.831C262.649 235.209 236.605 227.048 211.94 231.138ZM62.4863 243.356C61.0483 251.023 52.9553 259.651 44.0243 263.042L39.3933 264.799L39.1333 311.9C38.9023 353.796 39.0443 359 40.4163 359C42.3063 359 50.6233 363.273 53.4873 365.714C57.1203 368.812 61.0413 374.787 62.3503 379.222L63.6133 383.5L115.253 383.759C143.655 383.901 166.893 383.797 166.893 383.528C166.893 383.258 164.038 380.182 160.548 376.692C133.17 349.314 125.801 308.395 141.932 273.327C146.862 262.608 150.67 257.142 159.748 247.75L167.24 240H115.178H63.1163L62.4863 243.356ZM288.064 244.75C299.231 255.18 308.716 270.742 313.511 286.5C316.006 294.702 316.249 296.919 316.249 311.5C316.249 326.066 316.005 328.3 313.526 336.421C308.527 352.798 301.982 363.893 290.029 376.259L282.528 384.018L334.419 383.759L386.31 383.5L387.776 379.5C391.288 369.913 399.228 361.973 407.52 359.755L411.893 358.585V311.761C411.893 268.042 411.777 264.901 410.143 264.39C399.628 261.103 391.261 253.636 388.383 244.97L386.732 240H334.855H282.979L288.064 244.75ZM222.354 244.405C220.987 245.405 220.282 247.459 219.913 251.522L219.393 257.233L213.99 259.244C194.468 266.507 189.12 293.038 204.201 307.801C209.474 312.963 215.845 315.798 224.658 316.904C232.666 317.91 236.639 319.72 240.248 324.01C247.379 332.484 245.502 345.764 236.249 352.302C224.588 360.542 208.253 353.364 205.982 339.002C204.775 331.364 200.972 328.921 196.794 333.099C195.025 334.868 194.798 335.928 195.351 339.849C196.895 350.816 203.957 359.763 214.525 364.143L219.893 366.368V371.529C219.893 378.02 222.383 380.915 226.673 379.412C229.189 378.531 229.415 377.993 229.691 372.237C229.969 366.404 230.157 365.974 232.691 365.365C237.916 364.11 242.663 361.05 247.185 356.02C253.088 349.455 255.303 342.969 254.668 334.116C253.557 318.64 242.554 308.073 225.836 306.426C216.896 305.545 211.072 302.068 208.037 295.798C203.55 286.529 206.191 276.549 214.714 270.558C220.614 266.411 228.309 266.296 235.06 270.252C240.104 273.208 244.893 280.939 244.893 286.125C244.893 289.281 247.207 292 249.893 292C254.852 292 256.264 285.387 253.217 276.428C250.855 269.482 241.913 260.648 235.299 258.726L230.393 257.3L229.892 251.113C229.269 243.404 226.767 241.178 222.354 244.405ZM76.3933 290.866C64.5793 296.246 59.6963 310.192 65.5283 321.895C75.5453 341.998 105.901 336.674 108.536 314.352C109.326 307.655 107.46 301.634 103.089 296.787C98.3283 291.506 92.8603 289.044 85.8933 289.044C82.7033 289.044 78.7133 289.809 76.3933 290.866ZM354.145 291.104C346.227 295.023 341.893 302.239 341.893 311.5C341.893 324.88 351.212 334.34 364.393 334.34C377.287 334.34 387.039 324.766 387.159 311.99C387.249 302.41 381.788 293.958 373.175 290.348C368.236 288.279 359.122 288.641 354.145 291.104ZM79.7863 300.497C74.2343 303.515 71.7493 312.125 74.7903 317.808C77.8563 323.537 86.6873 325.642 92.5793 322.05C96.6193 319.587 98.2263 316.576 98.2263 311.474C98.2263 301.991 88.1133 295.971 79.7863 300.497ZM358.192 300.96C347.402 307.538 351.906 324 364.496 324C368.544 324 369.618 323.51 373.011 320.118C376.192 316.936 376.89 315.537 376.878 312.368C376.859 307.313 375.141 304.084 370.981 301.28C366.836 298.487 362.427 298.377 358.192 300.96Z" fill="url(#paint0_linear_50_104)"/>
<defs>
<linearGradient id="paint0_linear_50_104" x1="116.795" y1="65.4797" x2="449.527" y2="416.863" gradientUnits="userSpaceOnUse">
<stop stop-color="#00DC93"/>
<stop offset="0.822445" stop-color="#003221"/>
</linearGradient>
</defs>
</svg>
